<?xml version="1.0" standalone="no"?>
<!DOCTYPE svg PUBLIC "-//W3C//DTD SVG 20010904//EN"
 "http://www.w3.org/TR/2001/REC-SVG-20010904/DTD/svg10.dtd">
<svg version="1.0" xmlns="http://www.w3.org/2000/svg"
 width="225.000000pt" height="225.000000pt" viewBox="0 0 225.000000 225.000000"
 preserveAspectRatio="xMidYMid meet">
<metadata>
Created by potrace 1.16, written by Peter Selinger 2001-2019
</metadata>
<g transform="translate(0.000000,225.000000) scale(0.100000,-0.100000)"
fill="#000000" stroke="none">
<path d="M1060 2196 c-178 -38 -303 -100 -393 -196 -50 -52 -54 -55 -102 -55
l-50 0 -3 -55 c-2 -41 1 -57 13 -66 15 -11 14 -17 -4 -72 -63 -186 -48 -415
35 -560 14 -23 22 -47 18 -54 -4 -6 -3 -8 3 -5 11 7 80 -82 75 -96 -1 -5 1 -6
6 -3 5 3 20 -6 33 -20 13 -15 44 -40 69 -57 49 -34 69 -55 101 -104 19 -31 20
-37 8 -155 -11 -109 -15 -124 -37 -145 -14 -13 -31 -23 -38 -23 -7 0 -14 -4
-16 -8 -5 -14 -166 -89 -238 -111 -36 -11 -105 -25 -155 -31 -134 -16 -160
-26 -210 -76 -25 -24 -45 -49 -45 -55 0 -6 -4 -8 -9 -5 -12 8 -27 -14 -29 -43
-1 -22 0 -22 12 -5 8 10 11 24 9 31 -3 8 -1 13 4 11 5 -2 32 21 59 51 45 48
56 55 114 67 36 8 99 17 140 20 41 3 93 14 115 24 22 9 51 21 65 25 14 4 75
34 137 65 61 32 114 55 117 52 3 -3 6 1 7 9 0 8 6 59 14 114 l14 100 -5 -93
c-3 -51 -9 -104 -15 -119 -8 -21 -5 -33 16 -65 78 -118 214 -188 367 -188 115
0 177 38 161 99 -3 12 -3 21 -1 21 2 0 35 -16 74 -35 38 -19 76 -35 84 -34 13
0 13 1 0 6 -8 3 -43 19 -77 35 -54 26 -64 36 -73 66 -6 23 -6 40 0 47 6 7 15
38 21 69 5 31 19 82 30 113 12 32 36 110 54 174 29 103 37 119 75 157 24 23
47 39 53 35 6 -3 7 -1 3 6 -9 14 48 83 60 73 4 -4 4 -1 0 6 -4 7 2 25 14 42
27 37 80 154 80 175 0 9 3 14 8 12 9 -6 11 17 14 163 2 86 -2 129 -15 173 -10
32 -15 63 -11 69 4 7 3 8 -4 4 -14 -8 -27 37 -17 61 5 14 4 15 -6 6 -9 -9 -19
1 -46 45 -41 69 -133 164 -191 199 -23 14 -40 29 -37 33 3 5 0 12 -6 16 -8 4
-9 3 -5 -4 10 -16 -5 -15 -29 1 -34 23 -107 46 -195 62 -47 9 -92 18 -100 19
-8 2 -62 -6 -120 -18z m78 -1438 c7 -7 12 -8 12 -3 0 4 9 0 20 -10 11 -10 23
-15 27 -12 3 4 1 7 -5 7 -7 0 -12 4 -12 8 0 5 33 4 73 -1 39 -4 91 -6 115 -3
43 6 58 -7 22 -19 -11 -4 -18 -11 -14 -16 11 -18 -16 -37 -61 -43 -34 -6 -56
-2 -91 13 -25 12 -51 18 -58 14 -6 -3 -8 -2 -3 2 4 5 -7 24 -25 42 -17 18 -27
33 -22 33 6 0 15 -5 22 -12z"/>
<path d="M710 332 c-94 -46 -96 -46 -237 -55 -78 -5 -164 -14 -190 -20 -47
-12 -54 -18 -126 -121 -13 -19 -27 -26 -52 -26 -19 0 -35 5 -35 10 0 6 -11 8
-26 4 -17 -4 -29 -2 -35 7 -5 9 -9 -13 -9 -58 l0 -73 825 0 826 0 -7 37 c-3
21 -7 43 -8 48 0 6 31 11 71 13 l72 3 7 -51 7 -50 129 0 129 0 -6 23 c-12 36
-71 130 -114 178 l-40 46 -103 13 c-57 7 -140 23 -186 35 l-82 22 -35 -32
c-45 -44 -112 -66 -215 -72 -134 -8 -298 41 -403 121 -23 17 -46 34 -52 38 -5
3 -53 -15 -105 -40z"/>
</g>
</svg>
