<?xml version="1.0" standalone="no"?>
<!DOCTYPE svg PUBLIC "-//W3C//DTD SVG 20010904//EN"
 "http://www.w3.org/TR/2001/REC-SVG-20010904/DTD/svg10.dtd">
<svg version="1.0" xmlns="http://www.w3.org/2000/svg"
 width="225.000000pt" height="225.000000pt" viewBox="0 0 225.000000 225.000000"
 preserveAspectRatio="xMidYMid meet">
<metadata>
Created by potrace 1.16, written by Peter Selinger 2001-2019
</metadata>
<g transform="translate(0.000000,225.000000) scale(0.100000,-0.100000)"
fill="#000000" stroke="none">
<path d="M893 2138 c-12 -64 -22 -98 -22 -78 -1 32 -3 33 -13 15 -7 -11 -22
-54 -34 -95 l-22 -75 -21 45 c-11 25 -21 53 -21 63 0 31 -15 18 -38 -36 -32
-70 -51 -166 -53 -257 0 -49 -3 -68 -9 -55 -6 17 -9 14 -15 -18 -8 -43 2 -168
14 -177 4 -3 11 -14 15 -25 6 -16 5 -18 -5 -7 -20 19 -39 14 -39 -9 0 -11 4
-18 9 -15 16 11 54 -88 62 -164 4 -41 12 -90 18 -107 11 -37 6 -41 -19 -18
-16 14 -18 14 -23 0 -4 -8 -2 -15 4 -15 6 0 8 -10 5 -22 -3 -13 -3 -17 0 -11
5 12 74 -67 74 -86 0 -4 9 -19 19 -33 11 -13 22 -46 26 -73 10 -76 23 -110 50
-133 21 -18 25 -31 25 -76 0 -93 -11 -145 -31 -151 -11 -4 -25 -12 -32 -18 -7
-7 -69 -40 -137 -74 -102 -50 -143 -64 -220 -78 -223 -38 -275 -59 -309 -127
-8 -15 -22 -37 -33 -47 -10 -11 -18 -24 -18 -29 0 -5 -9 -21 -21 -36 -11 -14
-18 -30 -15 -34 3 -5 -4 -23 -15 -41 -11 -18 -18 -36 -15 -39 8 -7 7 -9 54 88
23 47 62 110 86 141 41 52 49 57 112 73 38 10 116 26 174 37 90 16 124 29 245
90 77 39 146 76 153 82 7 5 14 8 15 6 2 -2 15 -23 31 -46 39 -59 114 -127 172
-156 98 -50 250 -53 315 -6 35 25 55 67 39 83 -5 5 -10 16 -10 24 0 10 8 7 30
-8 86 -61 219 -107 395 -135 55 -9 114 -21 132 -26 41 -13 95 -79 141 -176
l37 -78 3 48 c2 26 7 47 13 47 5 0 9 19 8 43 0 33 -2 38 -9 22 -5 -11 -12 -38
-16 -60 -4 -22 -9 -33 -11 -24 -2 9 0 34 6 57 8 39 7 42 -13 41 -11 0 -15 -3
-8 -6 15 -6 16 -33 1 -53 -8 -12 -9 -10 -4 7 5 18 3 22 -8 17 -9 -3 -14 0 -14
8 1 7 -2 14 -7 15 -9 2 -32 37 -42 65 -3 10 -10 16 -14 13 -4 -2 -16 4 -26 13
-11 10 -59 25 -114 35 -52 10 -106 21 -120 24 -14 4 -31 5 -37 4 -7 -1 -13 2
-13 8 0 5 -9 7 -20 4 -19 -5 -20 0 -22 83 l-2 89 -3 -83 -4 -82 -28 5 c-41 7
-97 32 -172 76 l-66 40 16 33 c9 19 20 31 25 28 5 -3 6 0 2 7 -10 15 15 82 27
74 6 -3 7 -1 4 4 -6 9 17 73 53 148 19 39 40 108 40 131 0 13 10 38 23 57 44
65 56 208 17 199 -19 -4 -5 38 33 100 17 29 35 54 39 56 4 2 4 10 1 19 -4 10
-2 14 4 10 6 -4 10 5 10 21 -1 15 1 32 2 37 5 17 0 101 -6 88 -12 -31 -19 -7
-21 72 -2 69 -8 101 -33 168 -18 45 -40 93 -51 106 -10 13 -18 30 -18 38 0 8
-4 11 -10 8 -5 -3 -10 -3 -10 2 0 4 -14 23 -30 42 -24 27 -28 37 -19 53 8 15
8 23 -2 32 -9 8 -10 8 -5 -1 3 -6 3 -18 0 -27 -5 -12 -10 -13 -25 -5 -10 5
-19 16 -19 24 0 8 -6 15 -14 15 -18 0 -95 86 -111 124 l-12 28 -11 -30 c-7
-22 -7 -33 1 -42 21 -23 -14 0 -93 61 -41 32 -84 72 -95 89 -28 43 -58 37 -66
-12 -3 -21 -1 -43 5 -50 6 -7 -2 -2 -17 12 -15 13 -33 36 -40 50 -10 20 -21
26 -53 28 l-41 3 -20 -113z m638 -847 c31 -21 46 -26 51 -18 9 15 9 15 11 -55
2 -51 0 -55 -14 -42 -23 21 -55 17 -111 -13 -42 -23 -78 -64 -78 -88 0 -9 55
3 118 26 29 10 55 19 57 19 2 0 14 -14 26 -32 13 -17 18 -29 12 -25 -12 8 -33
-92 -33 -156 0 -40 -20 -98 -103 -292 -31 -71 -64 -135 -73 -142 -27 -20 -126
-16 -186 7 -43 16 -70 38 -143 116 -94 100 -155 186 -155 215 0 10 -5 21 -11
25 -7 4 -9 24 -6 50 4 38 2 42 -11 35 -23 -13 -66 12 -91 52 -35 57 -25 186
15 201 8 3 29 -7 47 -23 28 -26 32 -35 32 -80 0 -28 2 -51 5 -51 12 0 43 88
48 133 3 34 8 45 15 38 7 -7 19 7 37 49 15 33 29 63 33 66 3 4 20 1 37 -6 l31
-13 -24 -26 c-44 -47 -63 -100 -29 -83 9 5 64 23 122 40 58 17 113 34 122 37
14 6 12 -4 -12 -52 -16 -32 -30 -64 -30 -70 0 -17 -1 -17 -66 12 -69 31 -101
31 -159 4 -61 -29 -64 -39 -13 -40 24 0 61 -7 83 -14 l40 -13 -45 4 -45 4 41
-13 c22 -6 39 -17 37 -23 -2 -6 3 -16 11 -23 11 -9 17 -8 30 4 15 15 19 15 53
-6 20 -13 33 -17 29 -10 -5 7 -21 20 -37 30 l-28 17 57 -4 c41 -2 63 1 77 12
20 15 20 15 -2 16 -32 0 -28 15 7 30 39 16 114 98 142 154 12 25 25 46 28 46
4 0 27 -13 51 -29z m-463 -723 c81 -83 138 -115 222 -125 26 -3 62 -1 78 5 29
10 30 9 42 -32 14 -50 11 -66 -15 -86 -41 -33 -84 -43 -164 -38 -99 6 -172 40
-251 118 -82 81 -102 111 -96 140 3 14 9 68 12 122 l7 96 45 -61 c25 -34 79
-97 120 -139z"/>
<path d="M786 365 c-52 -31 -136 -51 -276 -65 -145 -15 -216 -35 -248 -69 -24
-25 -115 -160 -141 -208 l-12 -23 790 0 790 0 -10 32 c-5 18 -9 36 -9 40 0 14
130 9 134 -4 3 -7 7 -25 10 -40 l6 -28 146 0 145 0 -6 23 c-12 39 -73 141
-104 173 -28 30 -36 32 -148 44 -112 12 -182 33 -350 106 -6 3 -19 -8 -27 -25
-50 -95 -164 -143 -288 -121 -75 14 -147 43 -207 83 -25 17 -50 30 -57 30 -7
0 -12 4 -11 8 2 7 -72 70 -82 68 -3 0 -24 -11 -45 -24z"/>
</g>
</svg>
