<?xml version="1.0" standalone="no"?>
<!DOCTYPE svg PUBLIC "-//W3C//DTD SVG 20010904//EN"
 "http://www.w3.org/TR/2001/REC-SVG-20010904/DTD/svg10.dtd">
<svg version="1.0" xmlns="http://www.w3.org/2000/svg"
 width="245.000000pt" height="245.000000pt" viewBox="0 0 245.000000 245.000000"
 preserveAspectRatio="xMidYMid meet">
<metadata>
Created by potrace 1.16, written by Peter Selinger 2001-2019
</metadata>
<g transform="translate(0.000000,245.000000) scale(0.100000,-0.100000)"
fill="#000000" stroke="none">
<path d="M135 2435 c-65 -17 -109 -65 -124 -134 -15 -72 -16 -2079 0 -2151 15
-72 66 -124 136 -139 70 -14 2088 -14 2157 1 67 14 120 68 135 137 15 73 15
2079 0 2152 -14 66 -67 121 -132 137 -71 18 -2104 15 -2172 -3z m1043 -1058
c20 -20 33 -22 115 -22 85 0 97 3 162 35 53 27 73 43 84 67 l14 32 46 -23 c25
-13 93 -43 151 -66 58 -24 119 -52 135 -64 59 -40 105 -109 105 -158 0 -44
-31 -132 -73 -208 -53 -95 -77 -156 -77 -197 0 -51 -17 -47 -22 5 -3 27 -12
63 -21 82 -22 44 -21 58 8 105 13 22 25 50 25 62 0 12 4 23 8 25 5 2 19 40 31
85 16 61 19 88 12 102 -13 24 -114 111 -129 111 -5 0 -39 13 -74 30 -34 16
-69 30 -77 30 -8 0 -37 -16 -65 -35 -66 -45 -147 -73 -233 -81 -126 -10 -199
32 -197 116 2 45 2 45 -34 26 -15 -7 -92 -37 -172 -66 -80 -29 -155 -58 -167
-66 -11 -7 -33 -38 -48 -69 -15 -30 -32 -55 -37 -55 -13 0 -1 36 32 95 l27 50
184 66 c101 37 200 73 219 81 l35 15 5 -44 c4 -26 15 -52 28 -66z m1172 -944
c0 -180 -10 -214 -74 -271 -44 -38 -127 -82 -156 -82 -51 0 -163 79 -198 140
-26 43 -27 53 -30 208 l-4 162 231 0 231 0 0 -157z"/>
<path d="M2065 552 c-5 -4 -11 -18 -13 -31 -1 -13 -11 -36 -22 -51 -11 -15
-17 -30 -13 -34 3 -3 2 -6 -4 -6 -9 0 -19 -18 -50 -97 -4 -10 13 -13 63 -13
76 0 98 -8 88 -33 -3 -9 -11 -14 -17 -10 -6 4 -8 0 -4 -10 3 -10 3 -17 -1 -17
-8 0 -44 -101 -39 -106 1 -2 57 59 125 134 l122 137 -70 3 c-38 2 -70 7 -70
12 0 5 11 34 24 64 13 30 22 57 18 60 -8 9 -125 7 -137 -2z"/>
</g>
</svg>
